<svg width="310" height="212" viewBox="0 0 310 212" fill="none" xmlns="http://www.w3.org/2000/svg">
<path fill-rule="evenodd" clip-rule="evenodd" d="M69.034 72.8145C68.8187 69.2127 74.5461 68.9903 74.6525 72.5484C74.7562 76.0429 69.2468 76.3593 69.034 72.8145ZM104.534 51.3576C107.25 51.1789 123.426 51.4886 123.966 51.0756C124.899 50.3622 128.914 34.4621 130.183 32.8935C131.365 35.5197 132.261 39.3452 133.235 42.195C136.897 52.9023 133.505 51.2543 144.943 51.2477L155.565 51.2623C153.85 53.1988 141.259 61.3898 140.034 62.7505L145.953 81.0994C145.004 80.9366 139.306 76.4811 138.083 75.6114C135.349 73.6656 132.892 71.7714 130.211 69.909C127.657 71.0606 117.069 79.7426 114.282 81.2185L120.27 62.777L104.531 51.3589L104.534 51.3576ZM82.5177 41.9952C83.12 37.4523 89.58 23.0731 83.8951 14.8398C75.9314 19.0743 73.3203 36.1485 73.0052 48.0656C72.6237 47.4514 72.722 47.0212 72.5652 45.9689C71.2889 37.3861 71.0043 39.3862 72.9826 29.1581C71.1652 30.225 68.9888 34.2609 68.0196 36.4966L67.1196 38.772C67.081 38.8541 66.9494 39.095 66.9108 39.1612C66.8816 39.2128 66.8165 39.3028 66.7912 39.3438C66.7673 39.3849 66.7127 39.4669 66.6675 39.5238C62.9104 37.5396 57.6416 36.6753 53.4963 38.7641C50.7495 34.6699 47.6066 31.1595 43.4214 28.3758C42.2793 27.616 40.4141 26.205 39.0115 25.976L44.1792 45.634C38.9756 42.0587 38.6964 23.9653 31.4333 20.4827C32.828 29.5049 37.8349 44.4003 43.2645 47.7863C42.847 48.7433 42.2076 49.3535 41.6212 50.1782C38.1752 55.0202 34.0578 65.2311 33.2641 70.8779C32.4637 76.5697 33.8597 80.1437 35.6399 84.7276C39.3265 94.2144 36.5878 93.9947 37.081 98.8539C37.3137 97.3423 39.284 94.5454 40.0391 89.706C41.8512 78.0973 33.4688 79.4647 42.5479 58.8721C43.888 55.8343 45.1005 53.3828 46.6999 50.6441C47.9948 48.4269 50.5368 44.4493 52.192 43.4578C64.075 36.3457 70.9073 45.1164 72.4708 55.8316C73.7843 64.838 67.787 61.4149 64.5098 72.6887C61.1475 84.2564 60.9374 88.3148 53.2889 99.1888C50.8838 102.609 47.5149 106.858 43.4559 108.374C40.8196 109.357 40.1402 108.427 38.1593 108.256C37.6554 113.086 35.8991 116.794 35.7449 118.568C35.463 121.811 38.5927 125.407 41.366 125.917C45.2787 126.635 49.0903 124.803 50.6937 122.479C52.4433 119.944 53.5388 116.728 55.2765 114.111C60.6356 106.043 73.1581 91.6822 75.9634 86.3782C76.2199 85.8938 76.2984 85.6833 76.5762 85.2624C76.5802 85.2558 76.9193 84.7938 76.9552 84.7514C77.245 84.4139 77.1373 84.5264 77.4364 84.2749C77.1772 87.596 76.2638 90.6604 75.05 92.9848C72.9334 97.0379 71.346 98.388 72.7327 100.109C77.2556 105.728 77.1253 106.707 85.8308 109.249C88.0551 109.899 92.102 111.124 92.013 113.923C91.9691 115.293 90.839 116.941 90.1743 117.499C87.6669 119.608 80.2496 117.75 75.0487 118.521C72.0001 118.974 69.389 120.715 69.3677 123.879C75.401 126.387 85.3004 125.145 92.3733 125.073C100.768 124.987 107.817 126.647 114.032 122.671C114.113 114.902 108.632 112.661 113.692 104.687C124.027 88.4035 135.816 106.923 151.018 109.882C156.348 110.919 156.185 111.037 158.896 107.707C164.702 100.572 170.707 89.019 174.815 78.9802C179.283 68.0638 180.55 52.3437 179.826 39.4815C179.055 25.7867 175.606 14.3037 171.57 3.18216C170.8 1.06029 170.601 1.33693 168.259 0.988804C156.055 -0.827288 144.931 -0.168083 133.069 3.18481C121.252 6.52578 112.563 11.1865 102.702 17.5229C100.115 19.1855 91.42 25.5961 90.2833 27.3182C88.7544 29.6346 88.3648 32.7598 87.272 35.5449C86.4929 37.5304 83.9203 41.3876 82.5164 41.9978L82.5177 41.9952Z" fill="#002768"/>
<path fill-rule="evenodd" clip-rule="evenodd" d="M173.993 111.637C174.82 113.321 175.413 115.785 174.448 117.689C172.831 119.04 169.563 119.683 166.767 119.228C160.809 118.259 156.653 114.417 152.224 119.179C150.823 120.686 149.007 123.099 149.274 126.053C151.991 127.108 161.765 127.027 165.449 127.022C169.397 127.017 173.343 126.913 177.292 126.88C193.368 126.741 182.489 121.1 193.841 119.489C198.848 118.778 199.578 119.281 203.213 116.732C203.557 112.814 200.163 110.285 198.913 107.594C201.595 108.612 205.13 111.691 209.989 113.878C214.087 115.722 218.122 117.036 222.78 118.401C236.075 122.292 254.333 123.689 268.807 121.64C270.782 121.361 272.854 121.064 274.718 120.652C277.537 120.029 278.309 120.096 278.439 117.102C276.456 116.932 274.099 116.362 271.904 116.088C259.043 114.481 247.324 115.419 239.378 103.601C238.188 101.832 237.616 100.498 236.588 98.772C239.842 95.6904 241.337 95.1755 244.492 93.01C243.318 90.9821 241.499 89.7021 239.948 86.0871C238.888 83.6211 237.988 79.057 237.422 77.9385C237.233 77.5652 237.159 77.4977 237.08 77.3984C233.524 80.9287 227.856 85.4517 223.925 88.475C212.431 97.3172 206.003 99.3636 191.884 104.889C188.903 106.055 186.072 107.109 183.092 108.211C181.626 108.754 180.214 109.278 178.656 109.834C177.798 110.14 177.165 110.346 176.297 110.647L173.993 111.638V111.637Z" fill="#BF0931"/>
<path fill-rule="evenodd" clip-rule="evenodd" d="M159.95 110.426C165.611 110.354 164.234 110.035 167.534 107.388C172.335 103.536 178.92 95.1145 182.399 89.9707C193.106 74.1434 203.715 47.634 206.333 27.8013C206.629 25.5563 207.121 20.0644 206.292 18.0524C205.755 16.7525 199.993 15.4553 198.416 14.9695C192.932 13.2792 187.366 11.2606 181.939 9.85217C182.449 14.4533 183.371 19.2252 183.958 23.9256C187.824 54.856 185.028 76.0733 167.141 101.241C165.907 102.977 164.895 104.249 163.65 105.819C162.398 107.397 160.976 108.792 159.948 110.423L159.95 110.426Z" fill="#BF0931"/>
<path fill-rule="evenodd" clip-rule="evenodd" d="M117.067 145.751C122.599 145.751 121.708 144.938 121.708 151.898C121.708 154.486 121.708 157.075 121.708 159.663C121.708 176.705 123.092 174.856 117.119 174.86L117.065 173.753V145.751H117.067ZM104.457 182.164C109.155 182.164 126.857 182.797 129.864 181.468C133.291 179.953 134.333 177.626 134.32 172.889L134.321 147.294C134.333 142.554 133.045 140.355 129.568 139.017C126.515 137.843 109.156 138.437 104.459 138.437L104.457 182.162V182.164Z" fill="#002768"/>
<path fill-rule="evenodd" clip-rule="evenodd" d="M82.484 145.789C84.2456 145.666 85.607 145.601 86.8514 146.149C87.2144 148.084 87.4922 156.168 86.6108 157.37C85.7626 158.021 83.9013 157.888 82.3763 157.747L82.484 145.788V145.789ZM95.8122 164.262C100.005 160.189 99.6252 161.51 99.6252 153.047C99.6252 148.446 100.315 143.001 97.4421 140.526C94.2022 137.734 89.5675 138.439 84.5753 138.439C79.6628 138.439 74.7517 138.439 69.7661 138.439L69.7714 182.164H82.3723L82.3697 165.123L84.3746 165.05C84.9117 167.88 85.825 170.963 86.5523 173.79C86.9232 175.234 87.3034 176.644 87.689 178.143C87.8778 178.877 88.2966 181.944 89.198 182.169L100.73 182.099L95.8135 164.264L95.8122 164.262Z" fill="#002768"/>
<path fill-rule="evenodd" clip-rule="evenodd" d="M12.6116 163.112L17.2541 163.135L17.2767 182.164C20.1099 182.172 27.5444 182.422 29.8644 182.012L29.8298 138.451L17.2648 138.439L17.1465 155.801L12.6262 155.805L12.5624 138.464L0.00266158 138.48L0 182.11L12.6116 182.107V163.111V163.112Z" fill="#002768"/>
<path fill-rule="evenodd" clip-rule="evenodd" d="M309.915 166.851C309.915 160.532 305.292 159.747 299.867 156.68C291.83 152.139 292.708 154.449 292.656 148.722C292.636 146.595 292.305 145.751 294.559 145.751C298.131 145.751 297.321 145.861 297.304 153.996H309.916C309.916 146.398 311.46 138.44 301.203 138.44H288.783C283.289 138.44 280.055 140.975 280.055 146.434C280.055 155.977 279.257 156.826 287.661 161.063L295.735 165.395C297.008 166.088 297.306 166.003 297.306 167.714C297.306 173.656 297.98 174.86 295.425 174.86C293.033 174.86 292.661 174.983 292.662 172.891L292.664 164.988H280.055C280.055 173.013 278.253 182.165 288.489 182.165H301.203C311.468 182.165 309.916 174.064 309.916 166.851H309.915Z" fill="#002768"/>
<path fill-rule="evenodd" clip-rule="evenodd" d="M260.722 152.475L263.028 167.611L258.172 167.59L260.722 152.475ZM256.939 174.851L264.232 174.964C264.602 175.925 264.772 177.687 264.951 178.795C265.052 179.42 265.132 180.204 265.252 180.807C265.515 182.135 265.155 181.679 265.965 182.163L277.78 182.1L269.356 138.451L252.678 138.439C251.533 138.439 251.751 139.345 251.522 140.655L249.922 148.879C248.044 158.347 244.717 173.78 243.52 182.164L255.842 182.156L256.937 174.851H256.939Z" fill="#002768"/>
<path fill-rule="evenodd" clip-rule="evenodd" d="M49.8706 152.472L52.1759 167.61L47.3153 167.59L49.8692 152.472H49.8706ZM46.0882 174.857H53.4828L54.3962 180.81C54.6621 182.149 54.3057 181.687 55.1141 182.163L66.9253 182.095L58.503 138.452L41.8285 138.437C40.6785 138.437 40.9005 139.331 40.6585 140.657L39.0698 148.877C38.3745 152.549 37.5967 156.299 36.92 159.956C35.5599 167.314 33.902 174.714 32.6616 182.092L44.9874 182.152L46.0868 174.856L46.0882 174.857Z" fill="#002768"/>
<path fill-rule="evenodd" clip-rule="evenodd" d="M165.852 110.079C170.958 110.975 191.067 95.8916 196.054 90.3467C204.609 80.832 210.266 72.7801 217.396 61.5566C219.672 57.9734 228.076 43.5068 228.448 38.907L210.568 29.2627C208.354 52.4338 191.567 87.3737 174.475 103.081C173.698 103.794 173.375 104.055 172.547 104.897L165.852 110.079Z" fill="#BF0931"/>
<path fill-rule="evenodd" clip-rule="evenodd" d="M222.978 138.44H210.787C211.394 142.39 218.515 157.825 218.082 160.023C217.255 164.209 212.125 176.385 210.744 182.165H222.64C223.701 181.445 224.363 177.854 224.796 176.469C225.423 174.459 226.061 172.375 226.626 170.53C226.671 170.595 226.722 170.683 226.749 170.731L228.644 176.4C229.196 178.165 230.022 180.427 230.365 182.174L242.718 182.004C241.485 178.522 240.308 174.778 239.089 171.18C238.165 168.45 235.822 162.641 235.362 160.162C234.913 157.747 241.971 142.527 242.648 138.439L230.431 138.428L226.659 149.278L222.981 138.437L222.978 138.44Z" fill="#002768"/>
<path fill-rule="evenodd" clip-rule="evenodd" d="M196.553 145.751L208.659 145.722L208.677 138.443L183.946 138.445L183.943 182.156C189.044 182.193 204.752 182.381 208.723 182.099V174.866L196.6 174.86L196.553 163.113L207.858 163.051L207.713 155.811L196.553 155.807L196.554 145.752L196.553 145.751Z" fill="#002768"/>
<path fill-rule="evenodd" clip-rule="evenodd" d="M170.867 110.283C173.006 110.272 189.678 102.757 192.65 101.332C208.931 93.5248 220.215 84.3649 232.572 72.3525L236.48 68.486C238.016 66.5813 241.78 61.7975 242.67 59.0098L229.292 52.6892C229.087 52.8878 229.119 52.8361 228.877 53.1604L223.716 61.5155C220.498 66.433 215.367 74.1117 211.925 78.5434C209.646 81.4766 207.106 83.6091 204.693 86.0116L197.03 92.7505C191.581 97.0392 186.279 101.029 180.151 104.709C178.631 105.621 177.168 106.489 175.604 107.371C174.643 107.912 171.515 109.514 170.869 110.284L170.867 110.283Z" fill="#BF0931"/>
<path fill-rule="evenodd" clip-rule="evenodd" d="M152.953 145.744L160.977 145.8L160.981 182.164H173.59V145.764L181.664 145.751L181.606 138.44L152.967 138.439L152.953 145.744Z" fill="#002768"/>
<path fill-rule="evenodd" clip-rule="evenodd" d="M4.93754 197.738C7.15115 200.457 8.8715 204.08 11.008 206.71C12.1593 205.616 15.2836 199.938 17.2965 197.615L17.3018 211.713L22.1305 211.658V189.746L17.2752 189.722C16.3034 189.979 11.476 198.494 11.3324 198.906C9.83672 197.876 6.76957 191.39 5.14361 189.721L0.0490004 189.767L0.0410156 211.691L4.8006 211.666L4.93621 197.738H4.93754Z" fill="#BF0931"/>
<path fill-rule="evenodd" clip-rule="evenodd" d="M158.439 194.09H162.561C165.616 194.09 168.339 195.593 166.702 198.858C165.639 200.98 161.354 200.408 158.526 200.411L158.439 199.347V194.09ZM167.444 203.948C169.515 202.326 171.161 202.046 171.826 198.803C172.378 196.11 171.536 193.258 170.082 191.86C166.943 188.842 158.772 189.722 153.58 189.722V211.723L158.439 211.634V204.676L161.984 204.677C162.777 205.232 166.42 210.738 166.894 211.718L172.571 211.612C171.76 210.356 170.911 209.093 169.981 207.772C169.126 206.558 168.034 205.328 167.444 203.948Z" fill="#BF0931"/>
<path fill-rule="evenodd" clip-rule="evenodd" d="M121.74 194.032L133.48 194.025L133.461 189.722H116.821V211.714L133.641 211.674L133.627 207.422L121.647 207.306V202.809L132.057 202.794L132.055 198.496L121.637 198.386L121.74 194.032Z" fill="#BF0931"/>
<path fill-rule="evenodd" clip-rule="evenodd" d="M52.9082 195.663L55.6749 202.506L49.8889 202.476L52.9082 195.663ZM48.0369 206.784L57.5056 206.8L59.4294 211.707C61.1231 211.715 62.8315 211.847 64.5054 211.576L55.167 189.566C49.5619 189.566 51.0722 188.537 48.3374 194.9C46.5971 198.951 42.1513 208.786 41.2153 211.712L46.1438 211.693L48.0343 206.783L48.0369 206.784Z" fill="#BF0931"/>
<path fill-rule="evenodd" clip-rule="evenodd" d="M227.839 195.556C228.802 196.54 230.313 200.82 230.854 202.51L225.067 202.496L227.838 195.557L227.839 195.556ZM220.906 211.713C221.891 211.154 222.881 207.982 223.234 206.787L232.725 206.824C234.542 212.789 234.424 211.716 239.687 211.702C238.125 207.098 233.569 197.458 231.273 191.905C230.057 188.962 230.687 189.562 225.793 189.588L216.397 211.679L220.906 211.714V211.713Z" fill="#BF0931"/>
<path fill-rule="evenodd" clip-rule="evenodd" d="M306.69 195.705C307.671 194.628 308.406 193.365 309.154 192.257C305.084 188.756 295.493 187.944 293.578 194.062C290.988 202.334 301.063 201.969 304.952 204.693C305.231 207.673 303.339 208.12 300.385 207.625C298.015 207.228 296.915 206.264 295.446 205.156C294.203 206.042 293.731 207.131 292.504 208.186C293.867 210.917 300.234 212.597 304.16 211.802C309.307 210.762 310.891 206.051 309.432 202.652C307.737 198.705 302.948 199.302 299.368 197.437C297.306 196.363 297.648 193.753 300.906 193.695C303.516 193.648 304.859 194.949 306.691 195.705H306.69Z" fill="#BF0931"/>
<path fill-rule="evenodd" clip-rule="evenodd" d="M79.1777 194.153L85.8943 194.297L85.9023 211.713H90.7563L90.7656 194.216L97.4928 194.085L97.3772 189.722L79.2083 189.763L79.1777 194.153Z" fill="#BF0931"/>
<path fill-rule="evenodd" clip-rule="evenodd" d="M258.776 211.709L274.647 211.712L274.666 207.319H263.644L263.637 189.743L262.499 189.722L259.898 189.713L258.776 189.771V211.709Z" fill="#BF0931"/>
<path fill-rule="evenodd" clip-rule="evenodd" d="M192.427 189.721C191.822 191.725 192.232 208.243 192.232 211.713L196.068 211.739L197.092 211.583L197.005 189.738L192.425 189.721H192.427Z" fill="#BF0931"/>
</svg>
