<svg width="132" height="171" viewBox="0 0 132 171" fill="none" xmlns="http://www.w3.org/2000/svg">
<path fill-rule="evenodd" clip-rule="evenodd" d="M60.6513 0.293924C55.1059 1.06396 50.1391 2.63709 44.7405 5.33315C40.8034 7.2991 35.0513 11.0882 32.5617 13.3558C30.8854 14.8824 30.7549 15.0891 29.9573 17.4817C29.1236 19.9819 28.1404 21.5677 27.424 21.5677C26.9438 21.5677 26.9332 21.6811 27.7465 18.1294C29.6607 9.77047 27.5965 5.48224 24.5526 11.4943C23.6094 13.3574 22.8852 15.9609 22.4347 19.1085C21.833 23.3127 21.7576 23.6825 21.5031 23.6825C21.0425 23.6825 20.666 21.8056 20.7382 19.868C20.779 18.7799 20.7539 17.8317 20.6827 17.7606C20.435 17.5132 19.9615 18.0075 19.1879 19.3208C18.4261 20.6142 18.3843 20.6412 17.2403 20.5804C16.5972 20.5463 14.8528 20.4868 13.3644 20.4482C10.807 20.3821 10.6334 20.3417 10.2196 19.7173C8.95764 17.8135 4.8565 14.4816 4.2419 14.861C3.88129 15.0838 4.01066 16.2578 4.67157 18.7564C5.50814 21.9201 5.69175 23.0784 5.38644 23.2669C4.93746 23.5442 4.11887 21.7699 2.86956 17.81C1.63216 13.8885 0.675996 12.1435 0.0830898 12.7251C-0.437588 13.2358 1.60755 19.9856 2.91243 22.0634C3.15213 22.4451 3.68894 23.157 4.10512 23.6457C5.30654 25.056 5.45787 25.7119 4.83851 26.8248C3.0918 29.9631 2.03907 32.255 1.20038 34.7451C-0.051311 38.4607 -0.111634 41.0558 0.984224 44.0371C1.38505 45.1276 1.93695 46.8421 2.21052 47.8471C2.48408 48.8522 2.76638 49.733 2.83782 49.8041C2.90925 49.8755 3.16244 49.4694 3.40029 48.9022C3.9043 47.6999 3.78975 45.1278 3.12117 42.6364C2.32666 39.6744 2.65949 37.5644 4.73294 32.4228C5.84071 29.6755 7.14002 27.2678 8.69015 25.0901C10.2543 22.8923 12.0592 21.9642 14.7687 21.9642C16.4265 21.9642 16.7564 22.052 17.6451 22.7292C19.6741 24.2754 21.083 27.0201 21.4047 30.0535C21.6161 32.0467 21.183 33.2177 19.5802 34.9859C18.0393 36.6859 17.5097 37.7827 16.7406 40.865C15.4611 45.9914 14.229 48.8176 11.488 52.912C8.9698 56.6734 6.37885 58.8336 4.37207 58.8445C3.21615 58.8508 3.01587 59.1181 2.28962 61.6209C1.54855 64.175 1.58057 65.0286 2.46424 66.2684C3.30267 67.445 4.40911 67.9065 6.06295 67.7693C8.07158 67.6031 9.12696 66.6623 10.7911 63.5549C12.1971 60.9299 15.0275 56.9832 19.4908 51.4235C20.9568 49.5976 22.4183 47.7538 22.7389 47.3261C23.1935 46.7192 23.375 46.6269 23.5647 46.9058C23.9128 47.4173 23.567 48.6346 22.4193 50.9368C21.1692 53.4444 21.2428 53.8158 23.4289 56.0437C25.0024 57.647 25.2233 57.7755 27.7637 58.564C30.8005 59.5067 31.813 60.236 31.813 61.4805C31.813 62.3894 31.2217 63.4478 30.5404 63.7581C30.2946 63.8702 28.2479 64.0288 25.9924 64.1108C22.2587 64.2464 21.8145 64.3146 21.0317 64.8724C19.9985 65.6088 19.8818 66.5869 20.7671 67.0921C21.5661 67.5481 38.9059 67.7321 40.896 67.3054C43.4541 66.7574 43.9476 65.6131 42.9049 62.649C41.7908 59.4821 42.4988 56.8132 45.0641 54.5089C47.9815 51.8879 49.6777 52.1436 57.0796 56.3202C60.2156 58.0898 62.8322 59.1062 64.7001 59.2804C66.2306 59.4231 66.418 59.3806 67.2196 58.7065C68.5769 57.5653 71.4903 52.9311 73.8146 48.2154C76.6622 42.4386 77.2551 40.8525 78.1938 36.5033C78.9724 32.8949 78.9931 32.6139 79.015 25.2686C79.0367 18.0186 79.0097 17.6001 78.3025 14.166C77.1485 8.56082 75.3639 2.64555 74.4091 1.25879C73.8662 0.470505 72.1933 0.177347 67.3979 0.0298419C64.7289 -0.0521054 62.5197 0.0343359 60.6513 0.293924ZM52.906 18.726C53.047 18.9079 53.7193 20.8085 54.4003 22.95C55.2607 25.6561 55.7919 26.9255 56.143 27.1134C56.4264 27.2649 58.5062 27.3833 60.8828 27.3833C63.3984 27.3833 65.1837 27.4899 65.28 27.6456C65.5716 28.1166 65.0567 28.6313 62.2388 30.6855C58.779 33.2079 58.2702 33.6806 58.2702 34.3729C58.2702 34.6772 58.8041 36.53 59.4568 38.4904C60.1095 40.4507 60.6452 42.2626 60.6474 42.5171C60.6553 43.455 59.4851 42.9409 56.2859 40.6006C54.4736 39.2749 52.7705 38.2215 52.4393 38.2215C52.1075 38.2215 50.4105 39.2728 48.599 40.6006C45.4681 42.8957 44.2479 43.4471 44.2479 42.5668C44.2479 42.3398 44.7836 40.516 45.4384 38.5141C46.0933 36.5122 46.629 34.6288 46.629 34.3285C46.629 33.6697 45.7213 32.85 42.3459 30.4603C39.8692 28.7069 39.3186 28.1314 39.6327 27.6239C39.7144 27.4914 41.6871 27.3833 44.0164 27.3833C46.3988 27.3833 48.4726 27.2649 48.7572 27.1126C49.1104 26.9239 49.6353 25.6656 50.4939 22.9492C51.6823 19.1904 52.0236 18.3956 52.4496 18.3956C52.5594 18.3956 52.7647 18.5444 52.906 18.726ZM22.2003 38.3841C22.6072 39.0042 22.6135 39.1473 22.2624 39.7719C21.9587 40.3125 21.6685 40.4685 20.9655 40.4685C20.2625 40.4685 19.9723 40.3125 19.6686 39.7719C19.3175 39.1473 19.3238 39.0042 19.7307 38.3841C20.0501 37.8969 20.4147 37.6928 20.9655 37.6928C21.5163 37.6928 21.8809 37.8969 22.2003 38.3841Z" fill="#002768"/>
<path fill-rule="evenodd" clip-rule="evenodd" d="M81.3682 5.61503C81.2756 5.85585 81.5199 8.68092 81.9112 11.8933C83.1747 22.2712 83.1263 27.4101 81.696 34.6405C80.2361 42.0213 76.7308 49.3873 71.5341 55.9941C70.1107 57.8038 69.8493 58.5749 70.6589 58.5749C71.4923 58.5749 73.443 56.9489 75.717 54.3589C82.3802 46.7695 86.2814 39.6092 90.2727 27.6417C92.4591 21.0862 93.4685 16.6784 93.647 12.9065C93.8524 8.57174 94.1894 8.90191 87.5058 6.88812C85.7596 6.36207 83.882 5.76174 83.3335 5.55423C82.0368 5.06387 81.5743 5.07814 81.3682 5.61503ZM96.2621 16.2386C96.1859 16.3615 96.0472 16.9861 95.9536 17.6264C95.3967 21.4361 93.2899 28.2481 91.0971 33.3299C87.4002 41.8971 83.12 48.5879 77.6306 54.3811C76.4411 55.6365 75.4678 56.7369 75.4678 56.8263C75.4678 57.1805 76.3488 56.9524 77.7904 56.2254C80.4634 54.877 85.9999 50.4093 88.6757 47.4409C93.928 41.6147 99.7023 33.1427 103.226 26.0921C105.099 22.3452 105.486 21.231 105.142 20.5879C104.832 20.0082 97.6545 16.0152 96.9227 16.0152C96.6354 16.0152 96.338 16.1157 96.2621 16.2386ZM103.841 32.0222C100.42 37.3215 97.1198 41.9153 95.3879 43.7895C93.4116 45.9283 89.4565 49.3017 85.05 52.6065C83.1266 54.0491 81.5529 55.3372 81.5529 55.4691C81.5529 56.2109 87.3055 53.7707 91.653 51.1851C98.2784 47.2445 107.602 39.3289 111.179 34.6088C112.695 32.6077 112.996 31.8054 112.471 31.1654C112.018 30.6124 107.409 28.4395 106.689 28.4395C106.292 28.4395 105.558 29.362 103.841 32.0222ZM107.881 43.8257C99.2121 50.8904 96.6322 52.3031 83.1422 57.3724C80.1602 58.493 77.5708 59.534 77.3878 59.6857C77.2049 59.8372 77.0552 60.4899 77.0552 61.1359C77.0552 62.6493 76.6962 63.289 75.5873 63.7522C74.2846 64.2959 72.6956 64.2134 70.1628 63.4709C67.5364 62.7008 66.9774 62.6665 65.9249 63.2105C64.882 63.7492 63.562 65.6063 63.562 66.5344C63.562 67.7538 64.5248 67.8746 73.4835 67.7792C82.2339 67.6862 82.3183 67.6711 83.4539 66.0009C84.4608 64.5198 85.2194 64.1325 87.9026 63.7297C90.5296 63.3353 91.6765 62.7733 91.8204 61.8097C91.8652 61.51 91.5268 60.6006 91.0683 59.7888C90.3592 58.5337 90.297 58.2889 90.6521 58.1528C90.8815 58.0648 91.4582 58.2387 91.9334 58.539C97.0367 61.7651 103.758 63.9047 112.393 65.053C119.342 65.9769 131.378 65.1328 131.935 63.6826C132.3 62.7334 131.241 62.4458 125.736 61.9998C121.462 61.6535 118.652 61.036 116.476 59.9649C114.746 59.1129 111.842 56.2905 110.946 54.5897C110.079 52.9436 110.3 52.2454 112.115 50.9062C113.175 50.1233 113.566 49.6633 113.566 49.1978C113.566 48.8475 113.446 48.4864 113.298 48.3952C112.914 48.1584 111.996 46.3153 111.203 44.1895C110.827 43.1836 110.386 42.3158 110.222 42.2611C110.057 42.2064 109.004 42.9106 107.881 43.8257Z" fill="#BF0931"/>
<path d="M11.3124 160.691V169.957H9.0552V164.4L6.9828 169.957H5.1612L3.0756 164.387V169.957H0.8184V160.691H3.4848L6.0852 167.106L8.6592 160.691H11.3124ZM25.898 168.321H22.4396L21.8852 169.957H19.5224L22.8752 160.691H25.4888L28.8416 169.957H26.4524L25.898 168.321ZM25.3172 166.578L24.1688 163.186L23.0336 166.578H25.3172ZM43.722 160.691V162.499H41.2668V169.957H39.0096V162.499H36.5544V160.691H43.722ZM54.306 162.499V164.374H57.3288V166.116H54.306V168.149H57.7248V169.957H52.0488V160.691H57.7248V162.499H54.306ZM71.1098 169.957L69.1826 166.459H68.6414V169.957H66.3842V160.691H70.1726C70.903 160.691 71.5234 160.819 72.0338 161.074C72.553 161.329 72.9402 161.681 73.1954 162.13C73.4507 162.57 73.5783 163.063 73.5783 163.608C73.5783 164.224 73.4023 164.774 73.0503 165.258C72.707 165.742 72.1966 166.085 71.5191 166.288L73.6575 169.957H71.1098ZM68.6414 164.862H70.0406C70.4542 164.862 70.7622 164.761 70.9646 164.559C71.1758 164.356 71.2815 164.07 71.2815 163.701C71.2815 163.349 71.1758 163.071 70.9646 162.869C70.7622 162.667 70.4542 162.565 70.0406 162.565H68.6414V164.862ZM84.4464 160.691V169.957H82.1892V160.691H84.4464ZM99.0446 168.321H95.5862L95.0318 169.957H92.669L96.0218 160.691H98.6354L101.988 169.957H99.599L99.0446 168.321ZM98.4638 166.578L97.3154 163.186L96.1802 166.578H98.4638ZM112.46 168.215H115.417V169.957H110.203V160.691H112.46V168.215ZM127.04 170.05C126.362 170.05 125.755 169.94 125.218 169.72C124.682 169.5 124.25 169.174 123.925 168.743C123.608 168.312 123.441 167.793 123.423 167.185H125.826C125.861 167.529 125.98 167.793 126.182 167.977C126.384 168.153 126.648 168.241 126.974 168.241C127.308 168.241 127.572 168.167 127.766 168.017C127.96 167.859 128.056 167.643 128.056 167.37C128.056 167.141 127.977 166.952 127.819 166.803C127.669 166.653 127.48 166.53 127.251 166.433C127.031 166.336 126.714 166.226 126.301 166.103C125.702 165.918 125.214 165.733 124.836 165.549C124.457 165.364 124.132 165.091 123.859 164.73C123.586 164.369 123.45 163.899 123.45 163.318C123.45 162.455 123.762 161.782 124.387 161.298C125.012 160.805 125.826 160.559 126.829 160.559C127.85 160.559 128.672 160.805 129.297 161.298C129.922 161.782 130.256 162.46 130.3 163.331H127.858C127.841 163.032 127.731 162.799 127.528 162.631C127.326 162.455 127.066 162.367 126.75 162.367C126.477 162.367 126.257 162.442 126.09 162.592C125.922 162.733 125.839 162.939 125.839 163.212C125.839 163.511 125.98 163.745 126.261 163.912C126.543 164.079 126.983 164.259 127.581 164.453C128.18 164.655 128.664 164.849 129.033 165.034C129.412 165.219 129.737 165.487 130.01 165.839C130.283 166.191 130.419 166.644 130.419 167.199C130.419 167.727 130.283 168.206 130.01 168.637C129.746 169.069 129.359 169.412 128.848 169.667C128.338 169.922 127.735 170.05 127.04 170.05Z" fill="#BF0931"/>
<path fill-rule="evenodd" clip-rule="evenodd" d="M0.473456 74.5715C0.0524427 74.9929 0 77.3201 0 95.6494C0 113.979 0.0524427 116.306 0.473456 116.727C1.17595 117.43 11.1802 117.43 11.8827 116.727C12.2908 116.319 12.3562 115.075 12.3562 107.706C12.3562 97.945 12.2887 98.2114 14.7671 98.2114C17.2456 98.2114 17.1781 97.945 17.1781 107.706C17.1781 115.075 17.2435 116.319 17.6515 116.727C18.3534 117.429 28.0575 117.429 28.7594 116.727C29.1804 116.306 29.2329 113.979 29.2329 95.6494C29.2329 77.3201 29.1804 74.9929 28.7594 74.5715C28.0575 73.8698 18.3534 73.8698 17.6515 74.5715C17.2459 74.9772 17.1781 76.1419 17.1781 82.6884C17.1781 91.4385 17.223 91.2788 14.7671 91.2788C12.3113 91.2788 12.3562 91.4385 12.3562 82.6884C12.3562 76.1419 12.2883 74.9772 11.8827 74.5715C11.4885 74.1775 10.5317 74.0979 6.17808 74.0979C1.82449 74.0979 0.867648 74.1775 0.473456 74.5715ZM40.8742 74.4847C40.3305 74.8822 39.9306 76.5813 38.0217 86.6068C35.7406 98.5867 35.1225 101.799 33.8767 108.142C32.4153 115.583 32.3041 116.741 33.0247 117.018C33.9966 117.391 43.2586 117.218 43.8074 116.816C44.182 116.542 44.4433 115.623 44.7188 113.609C45.2049 110.054 45.3088 109.967 49.0302 109.967C52.5562 109.967 52.8931 110.226 53.2047 113.18C53.444 115.449 53.7945 116.617 54.3409 116.964C54.7658 117.234 64.2313 117.282 64.9205 117.018C65.7059 116.716 65.5627 115.595 63.2901 104.24C62.9751 102.665 62.2946 99.1383 61.7784 96.4029C58.3792 78.3901 57.6309 74.894 57.0903 74.4985C56.3128 73.9301 41.6499 73.9174 40.8742 74.4847ZM69.1858 74.5715C68.7647 74.9929 68.7123 77.3201 68.7123 95.6494C68.7123 113.979 68.7647 116.306 69.1858 116.727C69.8876 117.429 79.5918 117.429 80.2937 116.727C80.6987 116.322 80.7671 115.17 80.7671 108.761C80.7671 102.352 80.8355 101.2 81.2405 100.795C82.5545 99.481 83.0355 100.421 84.9905 108.124C85.9727 111.995 86.8572 115.416 86.9557 115.727C87.3915 117.1 87.7908 117.201 92.8189 117.201C95.4453 117.201 97.809 117.118 98.0712 117.018C98.8623 116.714 98.802 116.328 96.8991 109.515C95.3721 104.047 94.5548 100.769 94.5548 100.112C94.5548 99.7399 95.153 98.7733 95.8916 97.9516C96.627 97.1335 97.3897 95.9261 97.5868 95.2684C98.0814 93.6178 98.0748 80.7858 97.5787 79.1063C97.0896 77.4506 94.593 74.9537 92.9376 74.4645C92.0627 74.2062 88.4487 74.0979 80.6782 74.0979C71.063 74.0979 69.5992 74.1582 69.1858 74.5715ZM103.241 74.5715C102.82 74.9929 102.767 77.3201 102.767 95.6494C102.767 114.368 102.812 116.299 103.263 116.749C103.709 117.195 104.894 117.235 115.092 117.147C126.265 117.052 126.445 117.04 127.855 116.345C129.572 115.5 131.171 113.719 131.65 112.119C131.897 111.297 131.998 106.327 131.993 95.313C131.987 80.796 131.947 79.5868 131.434 78.4567C130.737 76.9234 128.482 74.916 126.935 74.4524C126.122 74.2089 122.307 74.0979 114.733 74.0979C105.118 74.0979 103.654 74.1582 103.241 74.5715ZM85.1505 81.7705C85.8726 82.4924 85.8904 82.623 85.8904 87.1961C85.8904 91.4798 85.8386 91.9335 85.2877 92.4845C84.848 92.9242 84.2832 93.0873 83.1995 93.0873C80.8186 93.0873 80.7671 92.9595 80.7671 87.0589C80.7671 81.218 80.8385 81.0306 83.0626 81.0306C84.0924 81.0306 84.5858 81.2054 85.1505 81.7705ZM119.205 81.7705L119.945 82.5102V95.6358C119.945 108.359 119.927 108.779 119.342 109.364C118.921 109.785 118.338 109.967 117.405 109.967C115.001 109.967 115.123 110.741 115.123 95.4986C115.123 80.3614 115.024 81.0306 117.268 81.0306C118.138 81.0306 118.668 81.2331 119.205 81.7705ZM49.6971 91.8063C49.88 92.5936 50.1546 94.1197 50.3071 95.1972C50.4599 96.2748 50.7594 98.1469 50.9728 99.3574C51.4743 102.201 51.272 102.552 49.0648 102.671C46.5435 102.807 46.4962 102.669 47.2952 97.5272C48.2032 91.6854 48.5106 90.3745 48.9726 90.3745C49.1926 90.3745 49.5105 91.0027 49.6971 91.8063ZM0.473456 120.688C0.135018 121.027 0 121.752 0 123.229C0 126.028 0.247123 126.243 3.46575 126.243C5.35353 126.243 6.10303 126.362 6.45805 126.717C6.87514 127.134 6.93151 128.904 6.93151 141.616C6.93151 154.327 6.98787 156.097 7.40496 156.514C8.10143 157.211 16.0082 157.211 16.7046 156.514C17.1217 156.097 17.1781 154.327 17.1781 141.616C17.1781 128.904 17.2344 127.134 17.6515 126.717C18.0065 126.362 18.7561 126.243 20.6438 126.243C23.8625 126.243 24.1096 126.028 24.1096 123.229C24.1096 121.752 23.9746 121.027 23.6361 120.688C23.2226 120.275 21.7508 120.215 12.0548 120.215C2.35882 120.215 0.886936 120.275 0.473456 120.688ZM26.6926 120.688C26.2731 121.108 26.2192 123.15 26.2192 138.601C26.2192 154.053 26.2731 156.095 26.6926 156.514C27.1028 156.924 28.4134 156.988 36.4657 156.988C44.518 156.988 45.8287 156.924 46.2389 156.514C46.5773 156.176 46.7123 155.451 46.7123 153.974C46.7123 150.986 46.6665 150.96 41.589 150.96C38.1944 150.96 37.3244 150.871 36.9392 150.486C36.2442 149.791 36.2442 142.182 36.9392 141.486C37.3207 141.105 38.167 141.013 41.2877 141.013C46.0264 141.013 46.1096 140.961 46.1096 137.999C46.1096 135.037 46.0264 134.984 41.2877 134.984C38.167 134.984 37.3207 134.892 36.9392 134.511C36.5649 134.136 36.4657 133.326 36.4657 130.639C36.4657 126.116 36.3151 126.243 41.6665 126.243C46.6569 126.243 46.7123 126.21 46.7123 123.229C46.7123 121.752 46.5773 121.027 46.2389 120.688C45.8287 120.279 44.518 120.215 36.4657 120.215C28.4134 120.215 27.1028 120.279 26.6926 120.688ZM49.4225 120.67C48.9895 121.192 49.2544 122.07 52.7286 131.624C53.8949 134.832 54.8493 137.68 54.8493 137.955C54.8493 138.229 53.7846 141.64 52.4829 145.535C51.1816 149.431 49.8752 153.396 49.5799 154.347C48.7773 156.933 48.8725 156.988 54.1257 156.988C59.2366 156.988 58.8012 157.307 60.2933 152.467C61.292 149.226 61.7796 148.326 62.3468 148.676C62.524 148.786 63.1701 150.464 63.7825 152.404C64.3949 154.345 65.0974 156.171 65.3439 156.461C65.7318 156.917 66.3677 156.988 70.0784 156.988C73.628 156.988 74.4329 156.906 74.762 156.509C75.0998 156.102 74.7195 154.73 72.2341 147.391C70.6251 142.64 69.3102 138.413 69.312 137.999C69.315 137.31 69.7602 135.977 72.3809 128.805C74.8428 122.069 75.1167 121.121 74.7349 120.661C74.4395 120.305 73.4957 120.215 70.0784 120.215C66.3722 120.215 65.7299 120.286 65.3324 120.742C65.0796 121.032 64.4323 122.626 63.8937 124.284C62.7801 127.712 62.317 128.431 61.6675 127.74C61.4394 127.497 60.8065 125.942 60.2613 124.284C59.7158 122.626 59.0679 121.032 58.8211 120.742C58.4326 120.286 57.7964 120.215 54.0859 120.215C50.6328 120.215 49.7266 120.303 49.4225 120.67ZM83.7262 120.529C83.2004 120.836 83.1121 121.186 81.8291 128.052C80.6592 134.313 79.5878 139.886 78.7579 144.027C78.3426 146.099 77.8191 148.88 77.5943 150.206C77.3698 151.532 77.0166 153.386 76.8098 154.326C76.236 156.933 76.3334 156.989 81.482 156.983C83.8239 156.981 85.919 156.865 86.1381 156.726C86.5908 156.439 87.0781 154.603 87.0886 153.145C87.101 151.459 87.924 150.96 90.6909 150.96C93.632 150.96 93.9068 151.187 94.1931 153.86C94.5177 156.892 94.6835 156.988 99.578 156.988C101.802 156.988 103.836 156.906 104.099 156.805C104.734 156.562 104.708 155.396 103.989 151.874C103.666 150.294 102.993 146.83 102.492 144.178C98.3749 122.36 98.1592 121.308 97.6884 120.742C97.2942 120.27 96.5776 120.216 90.7409 120.224C87.0519 120.229 84.0135 120.361 83.7262 120.529ZM111.425 120.605C109.812 121.121 108.222 122.497 107.564 123.946C107.102 124.963 106.998 125.936 106.993 129.313C106.989 131.582 107.113 133.771 107.267 134.178C108.019 136.155 109.378 137.105 118.66 142.139C121.256 143.547 121.452 143.906 121.452 147.237C121.452 150.395 121.155 150.96 119.493 150.96C117.788 150.96 117.534 150.428 117.534 146.849C117.534 145.109 117.394 143.424 117.222 143.103C116.935 142.567 116.551 142.52 112.422 142.52C108.743 142.52 107.848 142.606 107.46 142.993C107.073 143.38 106.986 144.263 106.986 147.797C106.986 150.178 107.113 152.459 107.267 152.866C107.725 154.07 109.454 155.837 110.751 156.426C111.816 156.91 112.849 156.975 119.493 156.975C127.639 156.975 128.405 156.845 130.151 155.172C131.684 153.702 131.986 152.405 131.993 147.258C132.001 141.996 131.8 141.126 130.239 139.652C129.43 138.889 122.769 135.043 119.711 133.574C117.996 132.75 117.534 131.868 117.534 129.414C117.534 126.988 117.982 126.243 119.442 126.243C120.941 126.243 121.452 127.156 121.452 129.839C121.452 133.207 121.402 133.176 126.726 133.176C130.258 133.176 131.14 133.089 131.527 132.702C131.902 132.327 132 131.513 132 128.774C132 124.054 131.31 122.508 128.534 121.015C127.405 120.406 126.864 120.362 119.945 120.304C114.857 120.261 112.208 120.355 111.425 120.605ZM92.0124 139.636C92.7128 144.158 92.6251 144.707 91.1728 144.879C89.9067 145.03 88.9659 144.696 88.7519 144.022C88.5605 143.419 89.5409 137.562 90.156 135.632C90.7277 133.838 91.3084 135.091 92.0124 139.636Z" fill="#002768"/>
</svg>
