<svg width="84" height="80" viewBox="0 0 84 80" fill="none" xmlns="http://www.w3.org/2000/svg">
<g id="Shapes" clip-path="url(#clip0_37_213)">
<path id="Vector" d="M78.3693 31.9437C78.9027 34.577 79.1754 37.2901 79.1754 40.0031C79.1754 62.0562 61.4166 80 39.5907 80C17.7649 80 0 62.0562 0 39.9969C0 17.9377 17.7589 0 39.5847 0C46.7428 0 53.7554 1.95361 59.8649 5.64036C61.7135 6.75496 62.3196 9.174 61.2105 11.0419C60.1074 12.9097 57.7133 13.516 55.8646 12.4014C50.9613 9.44347 45.3305 7.87568 39.5847 7.87568C22.0561 7.87568 7.7945 22.2858 7.7945 39.9969C7.7945 57.708 22.0561 72.1182 39.5847 72.1182C57.1132 72.1182 71.3749 57.708 71.3749 39.9969C71.3749 37.8167 71.1567 35.6365 70.7263 33.5176C70.296 31.3864 71.6537 29.3041 73.7629 28.8693C75.8782 28.4345 77.9329 29.8063 78.3632 31.9375L78.3693 31.9437Z" fill="#002768"/>
<path id="Vector_2" d="M82.9088 5.43215C81.4117 3.86436 78.9449 3.8215 77.3933 5.32804L39.3723 42.367L29.6928 31.9865C28.2139 30.4004 25.7471 30.3269 24.1833 31.8212C22.6135 33.3155 22.5408 35.808 24.0197 37.3881L36.4024 50.6653C37.1176 51.4308 38.1056 51.8778 39.1481 51.9023C39.1784 51.9023 39.2087 51.9023 39.239 51.9023C40.2451 51.9023 41.2209 51.5104 41.9483 50.8L82.8058 10.999C84.3574 9.48635 84.3998 6.99381 82.9088 5.42603V5.43215Z" fill="#BF0931"/>
</g>
<defs>
<clipPath id="clip0_37_213">
<rect width="84" height="80" fill="white"/>
</clipPath>
</defs>
</svg>
